<svg width="372" height="349" viewBox="0 0 372 349" fill="none" xmlns="http://www.w3.org/2000/svg">
<path fill-rule="evenodd" clip-rule="evenodd" d="M269.058 291.851C271.632 294.898 275.484 296.834 279.788 296.832L314.201 296.818C321.945 296.815 328.216 290.542 328.209 282.808L328.194 264.918C328.187 256.671 324.748 248.797 318.699 243.18C299.666 225.506 268.698 238.99 268.72 264.942L268.743 290.934C268.743 291.267 268.842 291.596 269.058 291.851L269.058 291.851ZM268.639 171.361L268.548 66.3386C268.544 62.174 267.156 57.4193 270.272 54.6526C272.745 52.4558 276.003 51.1213 279.575 51.1201L313.987 51.1058C321.731 51.1027 328.013 57.3693 328.02 65.1044L328.112 171.337C328.135 197.289 297.168 210.773 278.135 193.1C272.086 187.482 268.647 179.609 268.639 171.361V171.361ZM243.595 183.833C246.093 186.153 247.514 189.405 247.517 192.81L247.583 267.923C247.583 268.732 245.742 269.231 245.148 268.679L55.9057 92.9539C48.1886 85.7878 43.8 75.7413 43.7909 65.2184C43.7841 57.4846 50.0558 51.2116 57.799 51.2083L92.2122 51.1956C96.7584 51.1934 101.45 52.7084 105.123 55.386C105.571 55.7117 106.003 56.0683 106.418 56.4539L243.595 183.833ZM106.343 177.745C106.335 169.084 102.723 160.816 96.3715 154.918C76.3839 136.358 43.8652 150.517 43.8889 177.77L43.9806 282.923C43.9874 290.657 50.2699 296.924 58.013 296.921L92.4264 296.907C100.17 296.904 106.441 290.632 106.434 282.898L106.343 177.745Z" fill="#0A0047"/>
</svg>
